<svg width="547" height="54" viewBox="0 0 547 54" fill="none" xmlns="http://www.w3.org/2000/svg">
<path d="M507.267 52V11.9688H544.814V17.8281H513.548V27.8125H534.079V33.5781H513.548V46.2344H546.548V52H507.267Z" fill="#00236D"/>
<path d="M457.274 46.8906L460.321 41.6406C463.071 43.4844 466.071 44.9219 469.321 45.9531C472.571 46.9844 475.68 47.5 478.649 47.5C482.211 47.5 485.086 46.7812 487.274 45.3438C489.461 43.875 490.555 42 490.555 39.7188C490.555 37.4375 489.555 35.75 487.555 34.6562C485.555 33.5312 482.399 32.9062 478.086 32.7812C470.805 32.6875 465.805 31.8438 463.086 30.25C460.367 28.6562 459.008 26.0156 459.008 22.3281C459.008 18.8906 460.492 16.125 463.461 14.0312C466.461 11.9375 470.477 10.8906 475.508 10.8906C478.946 10.8906 482.274 11.375 485.492 12.3438C488.742 13.3125 491.867 14.75 494.867 16.6562L491.727 21.8594C489.227 20.1719 486.539 18.875 483.664 17.9688C480.789 17.0312 478.039 16.5625 475.414 16.5625C472.383 16.5625 469.946 17.0938 468.102 18.1562C466.258 19.2188 465.336 20.6094 465.336 22.3281C465.336 24.1094 466.258 25.375 468.102 26.125C469.977 26.875 473.211 27.25 477.805 27.25C484.18 27.25 488.992 28.3281 492.242 30.4844C495.492 32.6406 497.117 35.8438 497.117 40.0938C497.117 43.875 495.461 47.0156 492.149 49.5156C488.867 52.0156 484.602 53.2656 479.352 53.2656C475.477 53.2656 471.617 52.7188 467.774 51.625C463.961 50.5 460.461 48.9219 457.274 46.8906Z" fill="#00236D"/>
<path d="M412.109 0.25V33.7656C412.109 39.1406 413.109 42.75 415.109 44.5938C417.14 46.4062 421.109 47.3125 427.015 47.3125C432.921 47.3125 436.874 46.4062 438.874 44.5938C440.874 42.75 441.874 39.1406 441.874 33.7656V0.25H448.343V35.5C448.343 41.875 446.687 46.4531 443.374 49.2344C440.062 51.9844 434.609 53.3594 427.015 53.3594C419.421 53.3594 413.968 51.9844 410.656 49.2344C407.343 46.4531 405.687 41.875 405.687 35.5V0.25H412.109Z" fill="#00236D"/>
<path d="M337.107 33.5781V52H330.826V11.9688H367.81V17.8281H337.107V27.8125H356.935V33.5781H337.107Z" fill="#00236D"/>
<path d="M297.051 47.4062C302.395 47.4062 306.754 45.9688 310.129 43.0938C313.504 40.1875 315.192 36.5 315.192 32.0312C315.192 27.5938 313.489 23.9219 310.083 21.0156C306.708 18.1094 302.364 16.6562 297.051 16.6562C291.739 16.6562 287.395 18.1094 284.02 21.0156C280.676 23.8906 279.004 27.5625 279.004 32.0312C279.004 36.5 280.676 40.1875 284.02 43.0938C287.395 45.9688 291.739 47.4062 297.051 47.4062ZM297.051 53.2656C289.926 53.2656 284.067 51.25 279.473 47.2188C274.879 43.1875 272.583 38.125 272.583 32.0312C272.583 25.9062 274.864 20.8594 279.426 16.8906C284.02 12.8906 289.895 10.8906 297.051 10.8906C304.27 10.8906 310.161 12.875 314.723 16.8438C319.317 20.8125 321.614 25.875 321.614 32.0312C321.614 38.1562 319.317 43.2344 314.723 47.2656C310.129 51.2656 304.239 53.2656 297.051 53.2656Z" fill="#00236D"/>
<path d="M195.003 46.8906L198.049 41.6406C200.799 43.4844 203.799 44.9219 207.049 45.9531C210.299 46.9844 213.409 47.5 216.378 47.5C219.94 47.5 222.815 46.7812 225.003 45.3438C227.19 43.875 228.284 42 228.284 39.7188C228.284 37.4375 227.284 35.75 225.284 34.6562C223.284 33.5312 220.128 32.9062 215.815 32.7812C208.534 32.6875 203.534 31.8438 200.815 30.25C198.096 28.6562 196.737 26.0156 196.737 22.3281C196.737 18.8906 198.221 16.125 201.19 14.0312C204.19 11.9375 208.206 10.8906 213.237 10.8906C216.674 10.8906 220.003 11.375 223.221 12.3438C226.471 13.3125 229.596 14.75 232.596 16.6562L229.456 21.8594C226.956 20.1719 224.268 18.875 221.393 17.9688C218.518 17.0312 215.768 16.5625 213.143 16.5625C210.112 16.5625 207.674 17.0938 205.831 18.1562C203.987 19.2188 203.065 20.6094 203.065 22.3281C203.065 24.1094 203.987 25.375 205.831 26.125C207.706 26.875 210.94 27.25 215.534 27.25C221.909 27.25 226.721 28.3281 229.971 30.4844C233.221 32.6406 234.846 35.8438 234.846 40.0938C234.846 43.875 233.19 47.0156 229.878 49.5156C226.596 52.0156 222.331 53.2656 217.081 53.2656C213.206 53.2656 209.346 52.7188 205.503 51.625C201.69 50.5 198.19 48.9219 195.003 46.8906Z" fill="#00236D"/>
<path d="M142.478 52V11.9688H147.681L164.088 35.4062L180.494 11.9688H185.697V52H179.463V23.2188L164.088 45.4844L148.759 23.2188V52H142.478Z" fill="#00236D"/>
<path d="M97.7819 28.6562H119.063C121.219 28.6562 122.86 28.1875 123.985 27.25C125.141 26.3125 125.719 24.9688 125.719 23.2188C125.719 21.4688 125.141 20.1406 123.985 19.2344C122.86 18.2969 121.219 17.8281 119.063 17.8281H97.7819V28.6562ZM97.7819 34.5156V52H91.5006V12.0625H119.063C123.157 12.0625 126.36 13.0469 128.672 15.0156C130.985 16.9844 132.141 19.7188 132.141 23.2188C132.141 26.0625 131.219 28.5312 129.376 30.625C127.563 32.6875 125.188 33.9531 122.251 34.4219L133.36 52H126.563L115.219 34.5156H97.7819Z" fill="#00236D"/>
<path d="M44.1794 52V11.9688H81.7263V17.8281H50.4606V27.8125H70.9919V33.5781H50.4606V46.2344H83.4606V52H44.1794Z" fill="#00236D"/>
<path d="M22.1238 52V6.20312H0.373779V0.25H50.3894V6.20312H28.5925V52H22.1238Z" fill="#00236D"/>
</svg>
