<svg width="97" height="19" viewBox="0 0 97 19" fill="none" xmlns="http://www.w3.org/2000/svg">
<path d="M0.803749 18V0.75H2.78812L9.75687 11.3125L16.7725 0.75H18.7256V18H16.6006V4.53125L9.75687 14.7344L2.91312 4.53125V18H0.803749ZM23.1556 18V4.625H25.2806V18H23.1556ZM28.4137 16.2969L29.4294 14.5469C30.346 15.1615 31.346 15.6406 32.4294 15.9844C33.5127 16.3281 34.5492 16.5 35.5387 16.5C36.7262 16.5 37.6846 16.2604 38.4137 15.7812C39.1429 15.2917 39.5075 14.6667 39.5075 13.9062C39.5075 13.1458 39.1742 12.5833 38.5075 12.2188C37.8408 11.8438 36.7887 11.6354 35.3512 11.5938C32.9242 11.5625 31.2575 11.2812 30.3512 10.75C29.445 10.2188 28.9919 9.33854 28.9919 8.10938C28.9919 6.96354 29.4867 6.04167 30.4762 5.34375C31.4762 4.64583 32.8148 4.29688 34.4919 4.29688C35.6377 4.29688 36.7471 4.45833 37.82 4.78125C38.9033 5.10417 39.945 5.58333 40.945 6.21875L39.8981 7.95312C39.0648 7.39062 38.169 6.95833 37.2106 6.65625C36.2523 6.34375 35.3356 6.1875 34.4606 6.1875C33.4502 6.1875 32.6377 6.36458 32.0231 6.71875C31.4085 7.07292 31.1012 7.53646 31.1012 8.10938C31.1012 8.70312 31.4085 9.125 32.0231 9.375C32.6481 9.625 33.7262 9.75 35.2575 9.75C37.3825 9.75 38.9867 10.1094 40.07 10.8281C41.1533 11.5469 41.695 12.6146 41.695 14.0312C41.695 15.2917 41.1429 16.3385 40.0387 17.1719C38.945 18.0052 37.5231 18.4219 35.7731 18.4219C34.4815 18.4219 33.195 18.2396 31.9137 17.875C30.6429 17.5 29.4762 16.974 28.4137 16.2969ZM43.375 16.2969L44.3906 14.5469C45.3073 15.1615 46.3073 15.6406 47.3906 15.9844C48.474 16.3281 49.5104 16.5 50.5 16.5C51.6875 16.5 52.6458 16.2604 53.375 15.7812C54.1042 15.2917 54.4688 14.6667 54.4688 13.9062C54.4688 13.1458 54.1354 12.5833 53.4688 12.2188C52.8021 11.8438 51.75 11.6354 50.3125 11.5938C47.8854 11.5625 46.2188 11.2812 45.3125 10.75C44.4062 10.2188 43.9531 9.33854 43.9531 8.10938C43.9531 6.96354 44.4479 6.04167 45.4375 5.34375C46.4375 4.64583 47.776 4.29688 49.4531 4.29688C50.599 4.29688 51.7083 4.45833 52.7812 4.78125C53.8646 5.10417 54.9062 5.58333 55.9062 6.21875L54.8594 7.95312C54.026 7.39062 53.1302 6.95833 52.1719 6.65625C51.2135 6.34375 50.2969 6.1875 49.4219 6.1875C48.4115 6.1875 47.599 6.36458 46.9844 6.71875C46.3698 7.07292 46.0625 7.53646 46.0625 8.10938C46.0625 8.70312 46.3698 9.125 46.9844 9.375C47.6094 9.625 48.6875 9.75 50.2188 9.75C52.3438 9.75 53.9479 10.1094 55.0312 10.8281C56.1146 11.5469 56.6562 12.6146 56.6562 14.0312C56.6562 15.2917 56.1042 16.3385 55 17.1719C53.9062 18.0052 52.4844 18.4219 50.7344 18.4219C49.4427 18.4219 48.1562 18.2396 46.875 17.875C45.6042 17.5 44.4375 16.974 43.375 16.2969ZM60.0706 18V4.625H62.1956V18H60.0706ZM73.485 16.4688C75.2663 16.4688 76.7194 15.9896 77.8444 15.0312C78.9694 14.0625 79.5319 12.8333 79.5319 11.3438C79.5319 9.86458 78.9642 8.64062 77.8288 7.67188C76.7038 6.70312 75.2558 6.21875 73.485 6.21875C71.7142 6.21875 70.2663 6.70312 69.1413 7.67188C68.0267 8.63021 67.4694 9.85417 67.4694 11.3438C67.4694 12.8333 68.0267 14.0625 69.1413 15.0312C70.2663 15.9896 71.7142 16.4688 73.485 16.4688ZM73.485 18.4219C71.11 18.4219 69.1569 17.75 67.6256 16.4062C66.0944 15.0625 65.3288 13.375 65.3288 11.3438C65.3288 9.30208 66.0892 7.61979 67.61 6.29688C69.1413 4.96354 71.0996 4.29688 73.485 4.29688C75.8913 4.29688 77.8548 4.95833 79.3756 6.28125C80.9069 7.60417 81.6725 9.29167 81.6725 11.3438C81.6725 13.3854 80.9069 15.0781 79.3756 16.4219C77.8444 17.7552 75.8808 18.4219 73.485 18.4219ZM84.7744 18V4.65625H85.8681L94.3525 14.0312V4.65625H96.3994V18H95.3056L86.8369 8.65625V18H84.7744Z" fill="white"/>
</svg>
