<svg width="535" height="49" viewBox="0 0 535 49" fill="none" xmlns="http://www.w3.org/2000/svg">
<path d="M5.74805 21.3008H26.1982C29.1097 21.3008 31.3073 20.6569 32.791 19.3691C34.3027 18.0814 35.0586 16.1917 35.0586 13.7002C35.0586 11.2646 34.3027 9.375 32.791 8.03125C31.3073 6.65951 29.2077 5.97363 26.4922 5.97363H5.74805V21.3008ZM-0.00488281 47V0.640625H26.5762C31.0833 0.640625 34.6247 1.76042 37.2002 4C39.8037 6.23958 41.1055 9.30501 41.1055 13.1963C41.1055 17.2275 39.8457 20.4889 37.3262 22.9805C34.8346 25.472 31.5033 26.7178 27.332 26.7178H5.74805V47H-0.00488281ZM53.9551 26.0879H73.0195C74.9512 26.0879 76.4209 25.668 77.4287 24.8281C78.4645 23.9883 78.9824 22.7845 78.9824 21.2168C78.9824 19.6491 78.4645 18.4593 77.4287 17.6475C76.4209 16.8076 74.9512 16.3877 73.0195 16.3877H53.9551V26.0879ZM53.9551 31.3369V47H48.3281V11.2227H73.0195C76.6868 11.2227 79.5563 12.1045 81.6279 13.8682C83.6995 15.6318 84.7354 18.0814 84.7354 21.2168C84.7354 23.7643 83.9095 25.9759 82.2578 27.8516C80.6341 29.6992 78.5065 30.833 75.875 31.2529L85.8271 47H79.7383L69.5762 31.3369H53.9551ZM94.9395 47V11.0547H100.65V47H94.9395ZM128.659 47H125.762L107.747 11.1387H113.71L127.189 37.9717L140.459 11.1387H146.632L128.659 47ZM156.248 33.1426H170.273L163.303 19.4111L156.248 33.1426ZM143.272 47L161.497 11.1387H165.024L183.417 47H177.412L172.751 37.8877H153.812L149.193 47H143.272ZM226.711 38.2236C224.667 41.443 221.98 43.9066 218.648 45.6143C215.345 47.2939 211.58 48.1338 207.353 48.1338C201.054 48.1338 195.861 46.3561 191.773 42.8008C187.714 39.2174 185.685 34.6823 185.685 29.1953C185.685 23.7083 187.714 19.1732 191.773 15.5898C195.861 11.9785 201.054 10.1729 207.353 10.1729C211.272 10.1729 214.827 10.9147 218.019 12.3984C221.21 13.8542 223.785 15.9258 225.745 18.6133L221.294 21.7207C219.81 19.6771 217.851 18.1094 215.415 17.0176C213.007 15.8978 210.32 15.3379 207.353 15.3379C202.761 15.3379 198.954 16.6536 195.931 19.2852C192.935 21.8887 191.438 25.1641 191.438 29.1113C191.438 33.0586 192.949 36.348 195.973 38.9795C198.996 41.583 202.789 42.8848 207.353 42.8848C210.544 42.8848 213.357 42.2549 215.793 40.9951C218.229 39.7354 220.37 37.7757 222.218 35.1162L226.711 38.2236ZM244.516 47V28.6914L228.181 11.1387H235.403L247.287 23.8623L258.961 11.1387H266.436L250.017 28.6074V47H244.516ZM307.672 21.3008H328.122C331.034 21.3008 333.231 20.6569 334.715 19.3691C336.227 18.0814 336.982 16.1917 336.982 13.7002C336.982 11.2646 336.227 9.375 334.715 8.03125C333.231 6.65951 331.132 5.97363 328.416 5.97363H307.672V21.3008ZM301.919 47V0.640625H328.5C333.007 0.640625 336.549 1.76042 339.124 4C341.728 6.23958 343.029 9.30501 343.029 13.1963C343.029 17.2275 341.77 20.4889 339.25 22.9805C336.758 25.472 333.427 26.7178 329.256 26.7178H307.672V47H301.919ZM369.022 42.8848C373.81 42.8848 377.715 41.597 380.738 39.0215C383.762 36.418 385.273 33.1146 385.273 29.1113C385.273 25.1361 383.748 21.8467 380.696 19.2432C377.673 16.6396 373.782 15.3379 369.022 15.3379C364.263 15.3379 360.372 16.6396 357.349 19.2432C354.353 21.8187 352.855 25.1081 352.855 29.1113C352.855 33.1146 354.353 36.418 357.349 39.0215C360.372 41.597 364.263 42.8848 369.022 42.8848ZM369.022 48.1338C362.64 48.1338 357.391 46.3281 353.275 42.7168C349.16 39.1055 347.103 34.5703 347.103 29.1113C347.103 23.6243 349.146 19.1032 353.233 15.5479C357.349 11.9645 362.612 10.1729 369.022 10.1729C375.489 10.1729 380.766 11.9505 384.854 15.5059C388.969 19.0612 391.026 23.5964 391.026 29.1113C391.026 34.5983 388.969 39.1475 384.854 42.7588C380.738 46.3421 375.461 48.1338 369.022 48.1338ZM400.139 47V11.1387H405.766V41.835H432.389V47H400.139ZM438.855 47V11.0547H444.566V47H438.855ZM494.873 38.2236C492.829 41.443 490.142 43.9066 486.811 45.6143C483.507 47.2939 479.742 48.1338 475.515 48.1338C469.216 48.1338 464.023 46.3561 459.936 42.8008C455.876 39.2174 453.847 34.6823 453.847 29.1953C453.847 23.7083 455.876 19.1732 459.936 15.5898C464.023 11.9785 469.216 10.1729 475.515 10.1729C479.434 10.1729 482.989 10.9147 486.181 12.3984C489.372 13.8542 491.948 15.9258 493.907 18.6133L489.456 21.7207C487.972 19.6771 486.013 18.1094 483.577 17.0176C481.17 15.8978 478.482 15.3379 475.515 15.3379C470.924 15.3379 467.116 16.6536 464.093 19.2852C461.097 21.8887 459.6 25.1641 459.6 29.1113C459.6 33.0586 461.111 36.348 464.135 38.9795C467.158 41.583 470.951 42.8848 475.515 42.8848C478.706 42.8848 481.52 42.2549 483.955 40.9951C486.391 39.7354 488.532 37.7757 490.38 35.1162L494.873 38.2236ZM512.678 47V28.6914L496.343 11.1387H503.565L515.449 23.8623L527.123 11.1387H534.598L518.179 28.6074V47H512.678Z" fill="#00236D"/>
</svg>
