<svg width="239" height="19" viewBox="0 0 239 19" fill="none" xmlns="http://www.w3.org/2000/svg">
<path d="M15.3688 12.5L17.0875 13.7812C16.2958 15.2812 15.2125 16.4375 13.8375 17.25C12.4625 18.0521 10.9 18.4531 9.15 18.4531C6.56667 18.4531 4.43125 17.6042 2.74375 15.9062C1.06667 14.1979 0.228127 12.0365 0.228127 9.42188C0.228127 6.79688 1.07188 4.63542 2.75938 2.9375C4.44688 1.22917 6.57708 0.375 9.15 0.375C10.7438 0.375 12.1969 0.723958 13.5094 1.42188C14.8219 2.11979 15.8896 3.11458 16.7125 4.40625L14.9156 5.6875C14.374 4.65625 13.5927 3.84896 12.5719 3.26562C11.551 2.68229 10.4104 2.39062 9.15 2.39062C7.2125 2.39062 5.60833 3.05729 4.3375 4.39062C3.06667 5.71354 2.43125 7.39062 2.43125 9.42188C2.43125 11.4531 3.06667 13.1302 4.3375 14.4531C5.60833 15.776 7.2125 16.4375 9.15 16.4375C10.5042 16.4375 11.7073 16.1042 12.7594 15.4375C13.8115 14.7708 14.6813 13.7917 15.3688 12.5ZM20.6269 18V0.75H34.1894V2.73438H22.7675V7.79688H29.6738V9.78125H22.7675V16.0156H34.8925V18H20.6269ZM45.3225 16.4375C47.26 16.4375 48.8642 15.776 50.135 14.4531C51.4058 13.1302 52.0413 11.4531 52.0413 9.42188C52.0413 7.38021 51.4058 5.69792 50.135 4.375C48.8746 3.05208 47.2704 2.39062 45.3225 2.39062C43.385 2.39062 41.7808 3.05729 40.51 4.39062C39.2392 5.71354 38.6038 7.39062 38.6038 9.42188C38.6038 11.4531 39.2392 13.1302 40.51 14.4531C41.7808 15.776 43.385 16.4375 45.3225 16.4375ZM45.3225 18.4531C42.7392 18.4531 40.6038 17.6042 38.9163 15.9062C37.2392 14.1979 36.4006 12.0365 36.4006 9.42188C36.4006 6.79688 37.2444 4.63542 38.9319 2.9375C40.6194 1.22917 42.7496 0.375 45.3225 0.375C47.9058 0.375 50.0465 1.22917 51.7444 2.9375C53.4423 4.64583 54.2913 6.80729 54.2913 9.42188C54.2913 12.0365 53.4423 14.1979 51.7444 15.9062C50.0569 17.6042 47.9163 18.4531 45.3225 18.4531ZM68.1044 18V0.65625H70.2763V18H68.1044ZM74.8625 18V4.65625H75.9563L84.4406 14.0312V4.65625H86.4875V18H85.3938L76.925 8.65625V18H74.8625ZM93.9019 18V6.51562H88.2769V4.65625H101.621V6.51562H95.98V18H93.9019ZM105.504 10.2188H112.598C113.316 10.2188 113.863 10.0625 114.238 9.75C114.624 9.4375 114.816 8.98958 114.816 8.40625C114.816 7.82292 114.624 7.38021 114.238 7.07812C113.863 6.76562 113.316 6.60938 112.598 6.60938H105.504V10.2188ZM105.504 12.1719V18H103.41V4.6875H112.598C113.962 4.6875 115.03 5.01562 115.801 5.67188C116.571 6.32812 116.957 7.23958 116.957 8.40625C116.957 9.35417 116.65 10.1771 116.035 10.875C115.431 11.5625 114.639 11.9844 113.66 12.1406L117.363 18H115.098L111.316 12.1719H105.504ZM127.418 16.4688C129.199 16.4688 130.653 15.9896 131.778 15.0312C132.903 14.0625 133.465 12.8333 133.465 11.3438C133.465 9.86458 132.897 8.64062 131.762 7.67188C130.637 6.70312 129.189 6.21875 127.418 6.21875C125.647 6.21875 124.199 6.70312 123.074 7.67188C121.96 8.63021 121.403 9.85417 121.403 11.3438C121.403 12.8333 121.96 14.0625 123.074 15.0312C124.199 15.9896 125.647 16.4688 127.418 16.4688ZM127.418 18.4219C125.043 18.4219 123.09 17.75 121.559 16.4062C120.028 15.0625 119.262 13.375 119.262 11.3438C119.262 9.30208 120.022 7.61979 121.543 6.29688C123.074 4.96354 125.033 4.29688 127.418 4.29688C129.824 4.29688 131.788 4.95833 133.309 6.28125C134.84 7.60417 135.606 9.29167 135.606 11.3438C135.606 13.3854 134.84 15.0781 133.309 16.4219C131.778 17.7552 129.814 18.4219 127.418 18.4219ZM144.629 4.65625C146.806 4.65625 148.562 5.28125 149.895 6.53125C151.228 7.77083 151.895 9.38542 151.895 11.375C151.895 13.3854 151.239 14.9948 149.926 16.2031C148.624 17.401 146.859 18 144.629 18H138.707V4.65625H144.629ZM144.661 6.57812H140.801V16.0781H144.661C146.244 16.0781 147.489 15.6562 148.395 14.8125C149.301 13.9583 149.754 12.8021 149.754 11.3438C149.754 9.9375 149.286 8.79167 148.348 7.90625C147.411 7.02083 146.181 6.57812 144.661 6.57812ZM154.919 4.6875H157.013V13.2344C157.013 14.5156 157.315 15.3802 157.919 15.8281C158.523 16.276 159.721 16.5 161.513 16.5C163.315 16.5 164.518 16.276 165.122 15.8281C165.726 15.3802 166.028 14.5156 166.028 13.2344V4.6875H168.106V13.7812C168.106 15.4167 167.585 16.599 166.544 17.3281C165.513 18.0573 163.825 18.4219 161.481 18.4219C159.148 18.4219 157.471 18.0625 156.45 17.3438C155.429 16.625 154.919 15.4375 154.919 13.7812V4.6875ZM186.505 14.7344C185.745 15.9323 184.745 16.849 183.505 17.4844C182.276 18.1094 180.875 18.4219 179.302 18.4219C176.958 18.4219 175.026 17.7604 173.505 16.4375C171.995 15.1042 171.239 13.4167 171.239 11.375C171.239 9.33333 171.995 7.64583 173.505 6.3125C175.026 4.96875 176.958 4.29688 179.302 4.29688C180.76 4.29688 182.083 4.57292 183.271 5.125C184.458 5.66667 185.416 6.4375 186.146 7.4375L184.489 8.59375C183.937 7.83333 183.208 7.25 182.302 6.84375C181.406 6.42708 180.406 6.21875 179.302 6.21875C177.594 6.21875 176.177 6.70833 175.052 7.6875C173.937 8.65625 173.38 9.875 173.38 11.3438C173.38 12.8125 173.943 14.0365 175.068 15.0156C176.193 15.9844 177.604 16.4688 179.302 16.4688C180.489 16.4688 181.536 16.2344 182.443 15.7656C183.349 15.2969 184.146 14.5677 184.833 13.5781L186.505 14.7344ZM192.857 18V6.51562H187.232V4.65625H200.576V6.51562H194.935V18H192.857ZM202.365 18V4.625H204.49V18H202.365ZM215.779 16.4688C217.561 16.4688 219.014 15.9896 220.139 15.0312C221.264 14.0625 221.826 12.8333 221.826 11.3438C221.826 9.86458 221.259 8.64062 220.123 7.67188C218.998 6.70312 217.55 6.21875 215.779 6.21875C214.009 6.21875 212.561 6.70312 211.436 7.67188C210.321 8.63021 209.764 9.85417 209.764 11.3438C209.764 12.8333 210.321 14.0625 211.436 15.0312C212.561 15.9896 214.009 16.4688 215.779 16.4688ZM215.779 18.4219C213.404 18.4219 211.451 17.75 209.92 16.4062C208.389 15.0625 207.623 13.375 207.623 11.3438C207.623 9.30208 208.384 7.61979 209.904 6.29688C211.436 4.96354 213.394 4.29688 215.779 4.29688C218.186 4.29688 220.149 4.95833 221.67 6.28125C223.201 7.60417 223.967 9.29167 223.967 11.3438C223.967 13.3854 223.201 15.0781 221.67 16.4219C220.139 17.7552 218.175 18.4219 215.779 18.4219ZM227.069 18V4.65625H228.163L236.647 14.0312V4.65625H238.694V18H237.6L229.131 8.65625V18H227.069Z" fill="white"/>
</svg>
