<svg width="135" height="19" viewBox="0 0 135 19" fill="none" xmlns="http://www.w3.org/2000/svg">
<path d="M5.72938 11.3438H13.3231L9.51063 3.70312L5.72938 11.3438ZM0.166878 18L8.62 0.75H10.4013L18.9481 18H16.62L14.2763 13.3594H4.745L2.46375 18H0.166878ZM23.05 10.2188H30.6594C31.3677 10.2188 31.9094 10.0625 32.2844 9.75C32.6698 9.4375 32.8625 8.98958 32.8625 8.40625C32.8625 7.83333 32.6802 7.39062 32.3156 7.07812C31.951 6.76562 31.4302 6.60938 30.7531 6.60938H23.05V10.2188ZM23.05 12.1719V18H20.9563V4.65625H30.6594C32.0344 4.65625 33.1021 4.98438 33.8625 5.64062C34.6333 6.28646 35.0188 7.19792 35.0188 8.375C35.0188 9.48958 34.6385 10.401 33.8781 11.1094C33.1177 11.8177 32.1177 12.1719 30.8781 12.1719H23.05ZM39.7613 10.2188H47.3706C48.079 10.2188 48.6206 10.0625 48.9956 9.75C49.381 9.4375 49.5738 8.98958 49.5738 8.40625C49.5738 7.83333 49.3915 7.39062 49.0269 7.07812C48.6623 6.76562 48.1415 6.60938 47.4644 6.60938H39.7613V10.2188ZM39.7613 12.1719V18H37.6675V4.65625H47.3706C48.7456 4.65625 49.8133 4.98438 50.5738 5.64062C51.3446 6.28646 51.73 7.19792 51.73 8.375C51.73 9.48958 51.3498 10.401 50.5894 11.1094C49.829 11.8177 48.829 12.1719 47.5894 12.1719H39.7613ZM56.4725 10.2188H63.5663C64.285 10.2188 64.8319 10.0625 65.2069 9.75C65.5923 9.4375 65.785 8.98958 65.785 8.40625C65.785 7.82292 65.5923 7.38021 65.2069 7.07812C64.8319 6.76562 64.285 6.60938 63.5663 6.60938H56.4725V10.2188ZM56.4725 12.1719V18H54.3788V4.6875H63.5663C64.9308 4.6875 65.9985 5.01562 66.7694 5.67188C67.5402 6.32812 67.9256 7.23958 67.9256 8.40625C67.9256 9.35417 67.6183 10.1771 67.0038 10.875C66.3996 11.5625 65.6079 11.9844 64.6288 12.1406L68.3319 18H66.0663L62.285 12.1719H56.4725ZM78.3869 16.4688C80.1681 16.4688 81.6213 15.9896 82.7463 15.0312C83.8713 14.0625 84.4338 12.8333 84.4338 11.3438C84.4338 9.86458 83.866 8.64062 82.7306 7.67188C81.6056 6.70312 80.1577 6.21875 78.3869 6.21875C76.616 6.21875 75.1681 6.70312 74.0431 7.67188C72.9285 8.63021 72.3713 9.85417 72.3713 11.3438C72.3713 12.8333 72.9285 14.0625 74.0431 15.0312C75.1681 15.9896 76.616 16.4688 78.3869 16.4688ZM78.3869 18.4219C76.0119 18.4219 74.0588 17.75 72.5275 16.4062C70.9963 15.0625 70.2306 13.375 70.2306 11.3438C70.2306 9.30208 70.991 7.61979 72.5119 6.29688C74.0431 4.96354 76.0015 4.29688 78.3869 4.29688C80.7931 4.29688 82.7567 4.95833 84.2775 6.28125C85.8088 7.60417 86.5744 9.29167 86.5744 11.3438C86.5744 13.3854 85.8088 15.0781 84.2775 16.4219C82.7463 17.7552 80.7827 18.4219 78.3869 18.4219ZM91.9263 12.8438H97.145L94.5513 7.73438L91.9263 12.8438ZM87.0981 18L93.8794 4.65625H95.1919L102.036 18H99.8013L98.0669 14.6094H91.02L89.3013 18H87.0981ZM117.825 14.7344C117.065 15.9323 116.065 16.849 114.825 17.4844C113.596 18.1094 112.195 18.4219 110.622 18.4219C108.278 18.4219 106.346 17.7604 104.825 16.4375C103.315 15.1042 102.559 13.4167 102.559 11.375C102.559 9.33333 103.315 7.64583 104.825 6.3125C106.346 4.96875 108.278 4.29688 110.622 4.29688C112.08 4.29688 113.403 4.57292 114.591 5.125C115.778 5.66667 116.736 6.4375 117.466 7.4375L115.809 8.59375C115.257 7.83333 114.528 7.25 113.622 6.84375C112.726 6.42708 111.726 6.21875 110.622 6.21875C108.914 6.21875 107.497 6.70833 106.372 7.6875C105.257 8.65625 104.7 9.875 104.7 11.3438C104.7 12.8125 105.263 14.0365 106.388 15.0156C107.513 15.9844 108.924 16.4688 110.622 16.4688C111.809 16.4688 112.856 16.2344 113.763 15.7656C114.669 15.2969 115.466 14.5677 116.153 13.5781L117.825 14.7344ZM123.099 11.7969V18H121.005V4.65625H123.099V9.84375H132.474V4.65625H134.552V18H132.474V11.7969H123.099Z" fill="white"/>
</svg>
