<svg width="496" height="130" viewBox="0 0 496 130" fill="none" xmlns="http://www.w3.org/2000/svg">
<path d="M197.491 66.4398L145.926 21.583H142.589V78.8561H148.928V33.9994L200.644 78.8561H203.88V21.583H197.491V66.4398Z" fill="white"/>
<path d="M489.93 34.5444V67.0599L455.586 34.5444H452.333V78.8564H458.454V46.4536L492.764 78.8564H496V34.5444H489.93Z" fill="white"/>
<path d="M329.716 34.5444L316.972 66.9848L303.942 34.5444H298.794L285.781 66.9848L273.07 34.5444H215.367V78.8564H259.084V72.4698H221.572V58.4755H246.759V52.0889H221.572V41.0438H269.364L283.417 78.8564H287.76L301.393 44.7818L314.976 78.8564H319.42L333.506 40.7244H362.567V78.8564H368.722V40.7244H388.509V34.5444H329.716Z" fill="white"/>
<path d="M422.433 32.1961C415.558 30.3177 408.263 30.6182 402.948 33.6988C397.632 36.7794 394.244 41.6258 392.819 48.219C391.394 54.7747 392.416 60.8233 395.888 66.3458C399.359 71.8872 405.698 75.907 412.54 77.7666C419.432 79.6451 426.76 79.3445 432.109 76.2263C437.459 73.1081 440.846 68.2618 442.271 61.6685C443.713 55.0565 442.691 49.008 439.219 43.5418C435.748 38.0755 429.359 34.0745 422.417 32.1961M436.1 59.9967C435.061 64.8055 432.579 68.3182 428.672 70.5535C424.764 72.7888 419.046 72.8639 413.915 71.4739C408.817 70.0839 403.803 67.0784 401.237 63.0961C398.671 59.1139 397.934 54.7184 398.973 49.9096C400.013 45.1009 402.478 41.5882 406.385 39.3529C410.292 37.1176 415.977 37.0236 421.075 38.4137C426.173 39.8037 431.204 42.828 433.786 46.829C436.369 50.8488 437.14 55.2256 436.1 59.9967Z" fill="white"/>
<path d="M145.456 103.125H142.589V128.804H145.456V103.125Z" fill="white"/>
<path d="M150.722 128.785V109.042H152.164L163.366 122.905V109.042H166.082V128.785H164.623L153.438 114.96V128.785H150.722Z" fill="white"/>
<path d="M178.458 128.785H177.033L168.178 109.042H171.096L177.737 123.807L184.26 109.042H187.295L178.458 128.785Z" fill="white"/>
<path d="M189.324 128.785V109.042H205.859V111.935H192.091V116.857H201.13V119.693H192.091V125.948H206.63V128.785H189.324Z" fill="white"/>
<path d="M208.19 126.267L209.531 123.675C210.739 124.577 212.063 125.291 213.489 125.798C214.914 126.305 216.289 126.568 217.597 126.568C219.174 126.568 220.431 126.211 221.387 125.497C222.36 124.783 222.829 123.863 222.829 122.736C222.829 121.609 222.393 120.782 221.505 120.219C220.633 119.674 219.241 119.374 217.329 119.298C214.126 119.261 211.913 118.829 210.722 118.04C209.531 117.251 208.928 115.955 208.928 114.133C208.928 112.442 209.582 111.071 210.906 110.038C212.214 109.005 213.992 108.498 216.205 108.498C217.715 108.498 219.19 108.742 220.616 109.211C222.041 109.7 223.416 110.395 224.741 111.334L223.366 113.907C222.259 113.081 221.085 112.423 219.811 111.973C218.536 111.522 217.329 111.296 216.172 111.296C214.83 111.296 213.757 111.559 212.952 112.085C212.147 112.611 211.728 113.288 211.728 114.152C211.728 115.016 212.131 115.654 212.952 116.03C213.774 116.406 215.199 116.594 217.212 116.594C220.012 116.594 222.142 117.12 223.567 118.19C224.993 119.261 225.714 120.839 225.714 122.924C225.714 124.783 224.993 126.343 223.534 127.564C222.075 128.803 220.197 129.423 217.882 129.423C216.172 129.423 214.478 129.141 212.785 128.597C211.091 128.052 209.548 127.282 208.156 126.267" fill="white"/>
<path d="M233.981 128.785V111.785H226.552V109.042H244.177V111.785H236.731V128.785H233.981Z" fill="white"/>
<path d="M246.239 128.785V109.042H248.52L255.747 120.595L262.975 109.042H265.272V128.785H262.522V114.584L255.747 125.573L249.006 114.584V128.785H246.239Z" fill="white"/>
<path d="M268.928 128.785V109.042H285.462V111.935H271.695V116.857H280.734V119.693H271.695V125.948H286.217V128.785H268.928Z" fill="white"/>
<path d="M289.336 128.785V109.042H290.795L301.997 122.905V109.042H304.697V128.785H303.255L292.069 114.96V128.785H289.336Z" fill="white"/>
<path d="M314.071 128.785V111.785H306.642V109.042H324.283V111.785H316.821V128.785H314.071Z" fill="white"/>
<path d="M337.866 128.785V103.257H350.929C353.143 103.257 354.887 103.877 356.161 105.116C357.436 106.356 358.073 108.028 358.073 110.188C358.073 112.348 357.453 114.208 356.229 115.579C354.988 116.951 353.361 117.646 351.298 117.646H340.683V128.822H337.849L337.866 128.785ZM340.7 114.621H350.762C352.187 114.621 353.277 114.264 354.015 113.551C354.753 112.837 355.122 111.804 355.122 110.432C355.122 109.061 354.753 108.047 354.015 107.295C353.277 106.544 352.237 106.168 350.913 106.168H340.717V114.603L340.7 114.621Z" fill="white"/>
<path d="M354.719 128.785L363.674 109.042H365.401L374.44 128.785H371.488L369.191 123.769H359.884L357.62 128.785H354.703H354.719ZM361.092 121.158H367.984L364.563 113.588L361.092 121.158Z" fill="white"/>
<path d="M379.722 120.163V128.785H376.955V109.08H389.096C390.907 109.08 392.316 109.568 393.322 110.526C394.345 111.503 394.848 112.856 394.848 114.565C394.848 115.974 394.446 117.176 393.641 118.209C392.836 119.242 391.779 119.862 390.488 120.088L395.385 128.766H392.383L387.386 120.144H379.705L379.722 120.163ZM379.722 117.27H389.096C390.052 117.27 390.773 117.045 391.276 116.575C391.779 116.105 392.031 115.448 392.031 114.584C392.031 113.72 391.779 113.062 391.276 112.612C390.773 112.161 390.052 111.935 389.096 111.935H379.722V117.27Z" fill="white"/>
<path d="M404.071 128.785V111.785H396.642V109.042H414.267V111.785H406.821V128.785H404.071Z" fill="white"/>
<path d="M417.05 128.785V109.042H418.493L429.711 122.905V109.042H432.411V128.785H430.969L419.784 114.96V128.785H417.05Z" fill="white"/>
<path d="M436.603 128.785V109.042H453.138V111.935H439.37V116.857H448.409V119.693H439.37V125.948H453.893V128.785H436.603Z" fill="white"/>
<path d="M459.996 120.163V128.785H457.229V109.08H469.37C471.181 109.08 472.59 109.568 473.596 110.526C474.619 111.503 475.122 112.856 475.122 114.565C475.122 115.974 474.72 117.176 473.915 118.209C473.11 119.242 472.053 119.862 470.762 120.088L475.659 128.766H472.674L467.677 120.144H459.996V120.163ZM459.996 117.27H469.37C470.326 117.27 471.047 117.045 471.55 116.575C472.053 116.105 472.305 115.448 472.305 114.584C472.305 113.72 472.053 113.062 471.55 112.612C471.047 112.161 470.326 111.935 469.37 111.935H459.996V117.27Z" fill="white"/>
<path d="M478.443 126.267L479.784 123.675C480.992 124.577 482.316 125.291 483.742 125.798C485.167 126.305 486.542 126.568 487.85 126.568C489.427 126.568 490.684 126.211 491.657 125.497C492.613 124.783 493.099 123.863 493.099 122.736C493.099 121.609 492.663 120.782 491.774 120.219C490.885 119.674 489.51 119.374 487.599 119.298C484.396 119.261 482.199 118.829 480.992 118.04C479.801 117.251 479.197 115.955 479.197 114.133C479.197 112.442 479.851 111.071 481.159 110.038C482.467 109.005 484.245 108.498 486.458 108.498C487.968 108.498 489.443 108.742 490.869 109.211C492.294 109.7 493.669 110.395 494.994 111.334L493.602 113.907C492.495 113.081 491.321 112.423 490.047 111.973C488.773 111.522 487.565 111.296 486.408 111.296C485.066 111.296 483.993 111.559 483.188 112.085C482.383 112.611 481.964 113.288 481.964 114.152C481.964 115.016 482.367 115.654 483.188 116.03C484.01 116.406 485.435 116.594 487.448 116.594C490.248 116.594 492.378 117.12 493.803 118.19C495.229 119.261 495.95 120.839 495.95 122.924C495.95 124.783 495.229 126.343 493.77 127.564C492.311 128.803 490.433 129.423 488.118 129.423C486.408 129.423 484.714 129.141 483.021 128.597C481.327 128.052 479.784 127.282 478.392 126.267" fill="white"/>
<mask id="mask0_128_590" style="mask-type:luminance" maskUnits="userSpaceOnUse" x="0" y="0" width="116" height="129">
<path d="M115.641 0H0V128.785H115.641V0Z" fill="white"/>
</mask>
<g mask="url(#mask0_128_590)">
<path d="M113.645 23.4052L95.7522 117.721V21.5455H34.7961L22.3031 0L18.2114 21.5455H0V128.785H95.7355L115.641 23.8935L113.628 23.4239L113.645 23.4052ZM93.6896 23.8372V123.131L36.1209 23.8372H93.6896ZM23.2757 5.89825L32.3478 21.5267H20.3075L23.2757 5.89825ZM2.04584 23.8372H17.7754L2.09615 106.488L2.06261 106.694V23.8372H2.04584ZM2.04584 117.758L4.09169 106.976L19.8715 23.8372H33.6726L93.1866 126.474H2.04584V117.74V117.758Z" fill="white"/>
</g>
</svg>
