<svg width="715" height="40" viewBox="0 0 715 40" fill="none" xmlns="http://www.w3.org/2000/svg">
<path d="M688.198 39V9.81055H692.778V34.7959H714.448V39H688.198Z" fill="#00236D"/>
<path d="M662.443 27.7207H673.859L668.185 16.5439L662.443 27.7207ZM651.881 39L666.715 9.81055H669.586L684.557 39H679.669L675.875 31.583H660.46L656.701 39H651.881Z" fill="#00236D"/>
<path d="M639.251 39V13.8779H626.947V9.81055H656.136V13.8779H643.797V39H639.251Z" fill="#00236D"/>
<path d="M618.315 39V9.74219H622.964V39H618.315Z" fill="#00236D"/>
<path d="M586.34 21.9785H602.985C604.535 21.9785 605.719 21.6367 606.54 20.9531C607.383 20.2695 607.804 19.2897 607.804 18.0137C607.804 16.7604 607.406 15.792 606.608 15.1084C605.811 14.4248 604.671 14.083 603.19 14.083H586.34V21.9785ZM586.34 26.251V39H581.76V9.81055H602.985C605.993 9.81055 608.329 10.5283 609.992 11.9639C611.678 13.3766 612.521 15.3704 612.521 17.9453C612.521 20.3835 611.69 22.3773 610.026 23.9268C608.363 25.4762 606.175 26.251 603.464 26.251H586.34Z" fill="#00236D"/>
<path d="M555.936 27.7207H567.352L561.678 16.5439L555.936 27.7207ZM545.375 39L560.209 9.81055H563.08L578.05 39H573.163L569.369 31.583H553.954L550.194 39H545.375Z" fill="#00236D"/>
<path d="M540.161 26.9688L543.921 29.7715C542.189 33.0527 539.82 35.582 536.812 37.3594C533.804 39.1139 530.386 39.9912 526.558 39.9912C520.907 39.9912 516.236 38.1341 512.544 34.4199C508.876 30.6829 507.041 25.9548 507.041 20.2354C507.041 14.4932 508.887 9.76497 512.578 6.05078C516.27 2.3138 520.93 0.445312 526.558 0.445312C530.044 0.445312 533.223 1.20866 536.094 2.73535C538.965 4.26204 541.301 6.43815 543.101 9.26367L539.17 12.0664C537.985 9.81055 536.276 8.0446 534.043 6.76855C531.81 5.49251 529.315 4.85449 526.558 4.85449C522.32 4.85449 518.811 6.31283 516.031 9.22949C513.251 12.1234 511.861 15.792 511.861 20.2354C511.861 24.6787 513.251 28.3473 516.031 31.2412C518.811 34.1351 522.32 35.582 526.558 35.582C529.52 35.582 532.152 34.8529 534.453 33.3945C536.755 31.9362 538.658 29.7943 540.161 26.9688Z" fill="#00236D"/>
<path d="M452.011 39V9.81055H454.403L472.963 30.3184V9.81055H477.44V39H475.048L456.522 18.5605V39H452.011Z" fill="#00236D"/>
<path d="M427.315 35.6504C431.212 35.6504 434.39 34.6022 436.851 32.5059C439.312 30.3867 440.543 27.6979 440.543 24.4395C440.543 21.2038 439.301 18.5264 436.817 16.4072C434.356 14.2881 431.189 13.2285 427.315 13.2285C423.441 13.2285 420.274 14.2881 417.813 16.4072C415.375 18.5036 414.156 21.181 414.156 24.4395C414.156 27.6979 415.375 30.3867 417.813 32.5059C420.274 34.6022 423.441 35.6504 427.315 35.6504ZM427.315 39.9229C422.12 39.9229 417.847 38.4531 414.498 35.5137C411.148 32.5742 409.473 28.8828 409.473 24.4395C409.473 19.9733 411.137 16.2933 414.464 13.3994C417.813 10.4827 422.097 9.02441 427.315 9.02441C432.579 9.02441 436.874 10.4714 440.201 13.3652C443.551 16.2591 445.225 19.9505 445.225 24.4395C445.225 28.9056 443.551 32.6084 440.201 35.5479C436.851 38.4645 432.556 39.9229 427.315 39.9229Z" fill="#00236D"/>
<path d="M397.971 39V9.74219H402.62V39H397.971Z" fill="#00236D"/>
<path d="M377.172 39V13.8779H364.868V9.81055H394.057V13.8779H381.718V39H377.172Z" fill="#00236D"/>
<path d="M347.008 27.7207H358.424L352.75 16.5439L347.008 27.7207ZM336.447 39L351.281 9.81055H354.152L369.122 39H364.235L360.441 31.583H345.026L341.266 39H336.447Z" fill="#00236D"/>
<path d="M325.252 39H322.894L308.23 9.81055H313.084L324.056 31.6514L334.856 9.81055H339.881L325.252 39Z" fill="#00236D"/>
<path d="M298.506 39V9.74219H303.154V39H298.506Z" fill="#00236D"/>
<path d="M277.707 39V13.8779H265.402V9.81055H294.591V13.8779H282.253V39H277.707Z" fill="#00236D"/>
<path d="M263.812 31.8564C262.148 34.4769 259.961 36.4821 257.249 37.8721C254.561 39.2393 251.496 39.9229 248.055 39.9229C242.928 39.9229 238.701 38.4759 235.374 35.582C232.07 32.6654 230.418 28.974 230.418 24.5078C230.418 20.0417 232.07 16.3503 235.374 13.4336C238.701 10.4941 242.928 9.02441 248.055 9.02441C251.245 9.02441 254.139 9.62826 256.737 10.8359C259.334 12.0208 261.431 13.707 263.026 15.8945L259.403 18.4238C258.195 16.7604 256.6 15.4844 254.618 14.5957C252.658 13.6842 250.47 13.2285 248.055 13.2285C244.318 13.2285 241.219 14.2995 238.758 16.4414C236.32 18.5605 235.101 21.2266 235.101 24.4395C235.101 27.6523 236.331 30.3298 238.792 32.4717C241.253 34.5908 244.341 35.6504 248.055 35.6504C250.653 35.6504 252.943 35.1377 254.925 34.1123C256.908 33.0869 258.651 31.4919 260.155 29.3271L263.812 31.8564Z" fill="#00236D"/>
<path d="M199.673 24.4395H216.284L207.945 7.72559L199.673 24.4395ZM187.505 39L205.996 1.26562H209.893L228.589 39H223.496L218.369 28.8486H197.52L192.53 39H187.505Z" fill="#00236D"/>
<path d="M135.14 39V9.81055H137.533L156.093 30.3184V9.81055H160.57V39H158.177L139.652 18.5605V39H135.14Z" fill="#00236D"/>
<path d="M109.317 27.7207H120.733L115.059 16.5439L109.317 27.7207ZM98.7554 39L113.589 9.81055H116.46L131.431 39H126.543L122.75 31.583H107.334L103.575 39H98.7554Z" fill="#00236D"/>
<path d="M76.2476 21.9785H92.8931C94.4425 21.9785 95.6274 21.6367 96.4478 20.9531C97.2909 20.2695 97.7124 19.2897 97.7124 18.0137C97.7124 16.7604 97.3136 15.792 96.5161 15.1084C95.7186 14.4248 94.5793 14.083 93.0981 14.083H76.2476V21.9785ZM76.2476 26.251V39H71.6675V9.81055H92.8931C95.9009 9.81055 98.2365 10.5283 99.8999 11.9639C101.586 13.3766 102.429 15.3704 102.429 17.9453C102.429 20.3835 101.597 22.3773 99.9341 23.9268C98.2707 25.4762 96.0832 26.251 93.3716 26.251H76.2476Z" fill="#00236D"/>
<path d="M45.844 27.7207H57.26L51.5862 16.5439L45.844 27.7207ZM35.2825 39L50.1165 9.81055H52.9875L67.9583 39H63.0706L59.2766 31.583H43.8616L40.1018 39H35.2825Z" fill="#00236D"/>
<path d="M0.333008 22.7646H5.01562V28.6436C5.01562 31.0817 5.9043 32.8477 7.68164 33.9414C9.48177 35.0352 12.3984 35.582 16.4316 35.582C20.3965 35.582 23.0967 34.8984 24.5322 33.5312C25.9906 32.1641 26.7197 29.555 26.7197 25.7041V1.26562H31.4023V26.9688C31.4023 31.6172 30.1833 34.9554 27.7451 36.9834C25.307 38.9886 21.251 39.9912 15.5771 39.9912C10.4046 39.9912 6.5651 39.0684 4.05859 37.2227C1.57487 35.377 0.333008 32.5628 0.333008 28.7803V22.7646Z" fill="#00236D"/>
</svg>
