<svg width="115" height="19" viewBox="0 0 115 19" fill="none" xmlns="http://www.w3.org/2000/svg">
<path d="M15.7725 12.5L17.4912 13.7812C16.6996 15.2812 15.6162 16.4375 14.2412 17.25C12.8662 18.0521 11.3037 18.4531 9.55375 18.4531C6.97042 18.4531 4.835 17.6042 3.1475 15.9062C1.47042 14.1979 0.631874 12.0365 0.631874 9.42188C0.631874 6.79688 1.47562 4.63542 3.16312 2.9375C4.85062 1.22917 6.98083 0.375 9.55375 0.375C11.1475 0.375 12.6006 0.723958 13.9131 1.42188C15.2256 2.11979 16.2933 3.11458 17.1162 4.40625L15.3194 5.6875C14.7777 4.65625 13.9965 3.84896 12.9756 3.26562C11.9548 2.68229 10.8142 2.39062 9.55375 2.39062C7.61625 2.39062 6.01208 3.05729 4.74125 4.39062C3.47042 5.71354 2.835 7.39062 2.835 9.42188C2.835 11.4531 3.47042 13.1302 4.74125 14.4531C6.01208 15.776 7.61625 16.4375 9.55375 16.4375C10.9079 16.4375 12.111 16.1042 13.1631 15.4375C14.2152 14.7708 15.085 13.7917 15.7725 12.5ZM27.7181 16.4688C29.4994 16.4688 30.9525 15.9896 32.0775 15.0312C33.2025 14.0625 33.765 12.8333 33.765 11.3438C33.765 9.86458 33.1973 8.64062 32.0619 7.67188C30.9369 6.70312 29.489 6.21875 27.7181 6.21875C25.9473 6.21875 24.4994 6.70312 23.3744 7.67188C22.2598 8.63021 21.7025 9.85417 21.7025 11.3438C21.7025 12.8333 22.2598 14.0625 23.3744 15.0312C24.4994 15.9896 25.9473 16.4688 27.7181 16.4688ZM27.7181 18.4219C25.3431 18.4219 23.39 17.75 21.8587 16.4062C20.3275 15.0625 19.5619 13.375 19.5619 11.3438C19.5619 9.30208 20.3223 7.61979 21.8431 6.29688C23.3744 4.96354 25.3327 4.29688 27.7181 4.29688C30.1244 4.29688 32.0879 4.95833 33.6087 6.28125C35.14 7.60417 35.9056 9.29167 35.9056 11.3438C35.9056 13.3854 35.14 15.0781 33.6087 16.4219C32.0775 17.7552 30.114 18.4219 27.7181 18.4219ZM38.9762 18V4.65625H40.7106L46.1794 12.4688L51.6481 4.65625H53.3825V18H51.3044V8.40625L46.1794 15.8281L41.07 8.40625V18H38.9762ZM59.75 10.2188H67.3594C68.0677 10.2188 68.6094 10.0625 68.9844 9.75C69.3698 9.4375 69.5625 8.98958 69.5625 8.40625C69.5625 7.83333 69.3802 7.39062 69.0156 7.07812C68.651 6.76562 68.1302 6.60938 67.4531 6.60938H59.75V10.2188ZM59.75 12.1719V18H57.6562V4.65625H67.3594C68.7344 4.65625 69.8021 4.98438 70.5625 5.64062C71.3333 6.28646 71.7188 7.19792 71.7188 8.375C71.7188 9.48958 71.3385 10.401 70.5781 11.1094C69.8177 11.8177 68.8177 12.1719 67.5781 12.1719H59.75ZM74.8675 12.8438H80.0863L77.4925 7.73438L74.8675 12.8438ZM70.0394 18L76.8206 4.65625H78.1331L84.9769 18H82.7425L81.0081 14.6094H73.9613L72.2425 18H70.0394ZM86.6725 18V4.65625H87.7663L96.2506 14.0312V4.65625H98.2975V18H97.2038L88.735 8.65625V18H86.6725ZM106.384 18V11.1875L100.306 4.65625H102.993L107.415 9.39062L111.759 4.65625H114.54L108.431 11.1562V18H106.384Z" fill="white"/>
</svg>
