<svg width="343" height="55" viewBox="0 0 343 55" fill="none" xmlns="http://www.w3.org/2000/svg">
<path d="M318.151 53V32.5625L299.917 12.9688H307.979L321.245 27.1719L334.276 12.9688H342.62L324.292 32.4688V53H318.151Z" fill="#00236D"/>
<path d="M259.018 53V12.9688H262.299L287.752 41.0938V12.9688H293.893V53H290.611L265.205 24.9688V53H259.018Z" fill="#00236D"/>
<path d="M223.603 37.5312H239.259L231.478 22.2031L223.603 37.5312ZM209.118 53L229.462 12.9688H233.399L253.931 53H247.228L242.024 42.8281H220.884L215.728 53H209.118Z" fill="#00236D"/>
<path d="M178.25 29.6562H201.078C203.203 29.6562 204.828 29.1875 205.953 28.25C207.109 27.3125 207.688 25.9688 207.688 24.2188C207.688 22.5 207.141 21.1719 206.047 20.2344C204.953 19.2969 203.391 18.8281 201.359 18.8281H178.25V29.6562ZM178.25 35.5156V53H171.969V12.9688H201.078C205.203 12.9688 208.406 13.9531 210.688 15.9219C213 17.8594 214.156 20.5938 214.156 24.125C214.156 27.4688 213.016 30.2031 210.734 32.3281C208.453 34.4531 205.453 35.5156 201.734 35.5156H178.25Z" fill="#00236D"/>
<path d="M115.929 53V12.9688H121.132L137.538 36.4062L153.944 12.9688H159.147V53H152.913V24.2188L137.538 46.4844L122.21 24.2188V53H115.929Z" fill="#00236D"/>
<path d="M82.1543 48.4062C87.498 48.4062 91.8574 46.9688 95.2324 44.0938C98.6074 41.1875 100.295 37.5 100.295 33.0312C100.295 28.5938 98.5918 24.9219 95.1855 22.0156C91.8105 19.1094 87.4668 17.6562 82.1543 17.6562C76.8418 17.6562 72.498 19.1094 69.123 22.0156C65.7793 24.8906 64.1074 28.5625 64.1074 33.0312C64.1074 37.5 65.7793 41.1875 69.123 44.0938C72.498 46.9688 76.8418 48.4062 82.1543 48.4062ZM82.1543 54.2656C75.0293 54.2656 69.1699 52.25 64.5762 48.2188C59.9824 44.1875 57.6855 39.125 57.6855 33.0312C57.6855 26.9062 59.9668 21.8594 64.5293 17.8906C69.123 13.8906 74.998 11.8906 82.1543 11.8906C89.373 11.8906 95.2637 13.875 99.8262 17.8438C104.42 21.8125 106.717 26.875 106.717 33.0312C106.717 39.1562 104.42 44.2344 99.8262 48.2656C95.2324 52.2656 89.3418 54.2656 82.1543 54.2656Z" fill="#00236D"/>
<path d="M46.3175 36.5L51.4738 40.3438C49.0988 44.8438 45.8488 48.3125 41.7238 50.75C37.5988 53.1562 32.9113 54.3594 27.6613 54.3594C19.9113 54.3594 13.505 51.8125 8.4425 46.7188C3.41125 41.5938 0.89563 35.1094 0.89563 27.2656C0.89563 19.3906 3.42688 12.9062 8.48938 7.8125C13.5519 2.6875 19.9425 0.125 27.6613 0.125C32.4425 0.125 36.8019 1.17188 40.7394 3.26562C44.6769 5.35938 47.88 8.34375 50.3488 12.2188L44.9581 16.0625C43.3331 12.9688 40.9894 10.5469 37.9269 8.79688C34.8644 7.04688 31.4425 6.17188 27.6613 6.17188C21.8488 6.17188 17.0363 8.17188 13.2238 12.1719C9.41125 16.1406 7.505 21.1719 7.505 27.2656C7.505 33.3594 9.41125 38.3906 13.2238 42.3594C17.0363 46.3281 21.8488 48.3125 27.6613 48.3125C31.7238 48.3125 35.3331 47.3125 38.4894 45.3125C41.6456 43.3125 44.255 40.375 46.3175 36.5Z" fill="#00236D"/>
</svg>
