<svg width="117" height="20" viewBox="0 0 117 20" fill="none" xmlns="http://www.w3.org/2000/svg">
<path d="M0.0143738 18V0.65625H2.18625V18H0.0143738ZM6.7725 18V4.65625H7.86625L16.3506 14.0312V4.65625H18.3975V18H17.3037L8.835 8.65625V18H6.7725ZM32.3119 16.0781C33.3848 15.6302 34.2181 14.9896 34.8119 14.1562C35.4056 13.3229 35.7025 12.3854 35.7025 11.3438C35.7025 9.86458 35.1348 8.64062 33.9994 7.67188C32.8744 6.70312 31.4265 6.21875 29.6556 6.21875C27.8848 6.21875 26.4369 6.70312 25.3119 7.67188C24.1973 8.63021 23.64 9.85417 23.64 11.3438C23.64 12.8125 24.1921 14.0365 25.2962 15.0156C26.4004 15.9844 27.8015 16.4688 29.4994 16.4688C29.5619 16.4688 29.6556 16.4635 29.7806 16.4531C29.9056 16.4427 30.0046 16.4375 30.0775 16.4375L28.7337 14.7969H31.2494L32.3119 16.0781ZM33.6244 17.6094L35.4525 19.8281H32.89L31.5775 18.2656C30.8796 18.3281 30.4108 18.3698 30.1712 18.3906C29.9421 18.4115 29.7702 18.4219 29.6556 18.4219C27.2806 18.4219 25.3275 17.75 23.7962 16.4062C22.265 15.0625 21.4994 13.375 21.4994 11.3438C21.4994 9.30208 22.2598 7.61979 23.7806 6.29688C25.3119 4.96354 27.2702 4.29688 29.6556 4.29688C32.0619 4.29688 34.0254 4.95833 35.5462 6.28125C37.0775 7.60417 37.8431 9.29167 37.8431 11.3438C37.8431 12.7188 37.4733 13.9531 36.7337 15.0469C35.9942 16.1302 34.9577 16.9844 33.6244 17.6094ZM40.945 4.6875H43.0387V13.2344C43.0387 14.5156 43.3408 15.3802 43.945 15.8281C44.5492 16.276 45.7471 16.5 47.5387 16.5C49.3408 16.5 50.544 16.276 51.1481 15.8281C51.7523 15.3802 52.0544 14.5156 52.0544 13.2344V4.6875H54.1325V13.7812C54.1325 15.4167 53.6117 16.599 52.57 17.3281C51.5387 18.0573 49.8512 18.4219 47.5075 18.4219C45.1742 18.4219 43.4971 18.0625 42.4762 17.3438C41.4554 16.625 40.945 15.4375 40.945 13.7812V4.6875ZM58.4375 18V4.625H60.5625V18H58.4375ZM66.9613 10.2188H74.055C74.7738 10.2188 75.3206 10.0625 75.6956 9.75C76.081 9.4375 76.2738 8.98958 76.2738 8.40625C76.2738 7.82292 76.081 7.38021 75.6956 7.07812C75.3206 6.76562 74.7738 6.60938 74.055 6.60938H66.9613V10.2188ZM66.9613 12.1719V18H64.8675V4.6875H74.055C75.4196 4.6875 76.4873 5.01562 77.2581 5.67188C78.029 6.32812 78.4144 7.23958 78.4144 8.40625C78.4144 9.35417 78.1071 10.1771 77.4925 10.875C76.8883 11.5625 76.0967 11.9844 75.1175 12.1406L78.8206 18H76.555L72.7738 12.1719H66.9613ZM81.8913 18V4.625H84.0163V18H81.8913ZM88.29 18V4.65625H100.806V6.60938H90.3838V9.9375H97.2275V11.8594H90.3838V16.0781H101.384V18H88.29ZM102.892 16.2969L103.908 14.5469C104.824 15.1615 105.824 15.6406 106.908 15.9844C107.991 16.3281 109.027 16.5 110.017 16.5C111.204 16.5 112.163 16.2604 112.892 15.7812C113.621 15.2917 113.986 14.6667 113.986 13.9062C113.986 13.1458 113.652 12.5833 112.986 12.2188C112.319 11.8438 111.267 11.6354 109.829 11.5938C107.402 11.5625 105.736 11.2812 104.829 10.75C103.923 10.2188 103.47 9.33854 103.47 8.10938C103.47 6.96354 103.965 6.04167 104.954 5.34375C105.954 4.64583 107.293 4.29688 108.97 4.29688C110.116 4.29688 111.225 4.45833 112.298 4.78125C113.381 5.10417 114.423 5.58333 115.423 6.21875L114.376 7.95312C113.543 7.39062 112.647 6.95833 111.689 6.65625C110.73 6.34375 109.814 6.1875 108.939 6.1875C107.928 6.1875 107.116 6.36458 106.501 6.71875C105.887 7.07292 105.579 7.53646 105.579 8.10938C105.579 8.70312 105.887 9.125 106.501 9.375C107.126 9.625 108.204 9.75 109.736 9.75C111.861 9.75 113.465 10.1094 114.548 10.8281C115.631 11.5469 116.173 12.6146 116.173 14.0312C116.173 15.2917 115.621 16.3385 114.517 17.1719C113.423 18.0052 112.001 18.4219 110.251 18.4219C108.96 18.4219 107.673 18.2396 106.392 17.875C105.121 17.5 103.954 16.974 102.892 16.2969Z" fill="white"/>
</svg>
