<svg width="404" height="54" viewBox="0 0 404 54" fill="none" xmlns="http://www.w3.org/2000/svg">
<path d="M368.796 33.3906V52H362.515V11.9688H368.796V27.5312H396.921V11.9688H403.156V52H396.921V33.3906H368.796Z" fill="#00236D"/>
<path d="M352.975 42.2031C350.694 45.7969 347.694 48.5469 343.975 50.4531C340.287 52.3281 336.084 53.2656 331.366 53.2656C324.334 53.2656 318.537 51.2812 313.975 47.3125C309.444 43.3125 307.178 38.25 307.178 32.125C307.178 26 309.444 20.9375 313.975 16.9375C318.537 12.9062 324.334 10.8906 331.366 10.8906C335.741 10.8906 339.709 11.7188 343.272 13.375C346.834 15 349.709 17.3125 351.897 20.3125L346.928 23.7812C345.272 21.5 343.084 19.75 340.366 18.5312C337.678 17.2812 334.678 16.6562 331.366 16.6562C326.241 16.6562 321.991 18.125 318.616 21.0625C315.272 23.9688 313.6 27.625 313.6 32.0312C313.6 36.4375 315.287 40.1094 318.662 43.0469C322.037 45.9531 326.272 47.4062 331.366 47.4062C334.928 47.4062 338.069 46.7031 340.787 45.2969C343.506 43.8906 345.897 41.7031 347.959 38.7344L352.975 42.2031Z" fill="#00236D"/>
<path d="M275.279 36.5312H290.935L283.154 21.2031L275.279 36.5312ZM260.794 52L281.138 11.9688H285.076L305.607 52H298.904L293.701 41.8281H272.56L267.404 52H260.794Z" fill="#00236D"/>
<path d="M234.661 47.4062C240.004 47.4062 244.364 45.9688 247.739 43.0938C251.114 40.1875 252.801 36.5 252.801 32.0312C252.801 27.5938 251.098 23.9219 247.692 21.0156C244.317 18.1094 239.973 16.6562 234.661 16.6562C229.348 16.6562 225.004 18.1094 221.629 21.0156C218.286 23.8906 216.614 27.5625 216.614 32.0312C216.614 36.5 218.286 40.1875 221.629 43.0938C225.004 45.9688 229.348 47.4062 234.661 47.4062ZM234.661 53.2656C227.536 53.2656 221.676 51.25 217.083 47.2188C212.489 43.1875 210.192 38.125 210.192 32.0312C210.192 25.9062 212.473 20.8594 217.036 16.8906C221.629 12.8906 227.504 10.8906 234.661 10.8906C241.879 10.8906 247.77 12.875 252.333 16.8438C256.926 20.8125 259.223 25.875 259.223 32.0312C259.223 38.1562 256.926 43.2344 252.333 47.2656C247.739 51.2656 241.848 53.2656 234.661 53.2656Z" fill="#00236D"/>
<path d="M168.917 28.6562H190.199C192.355 28.6562 193.996 28.1875 195.121 27.25C196.277 26.3125 196.855 24.9688 196.855 23.2188C196.855 21.4688 196.277 20.1406 195.121 19.2344C193.996 18.2969 192.355 17.8281 190.199 17.8281H168.917V28.6562ZM168.917 34.5156V52H162.636V12.0625H190.199C194.292 12.0625 197.496 13.0469 199.808 15.0156C202.121 16.9844 203.277 19.7188 203.277 23.2188C203.277 26.0625 202.355 28.5312 200.511 30.625C198.699 32.6875 196.324 33.9531 193.386 34.4219L204.496 52H197.699L186.355 34.5156H168.917Z" fill="#00236D"/>
<path d="M118.784 28.6562H141.612C143.737 28.6562 145.362 28.1875 146.487 27.25C147.643 26.3125 148.221 24.9688 148.221 23.2188C148.221 21.5 147.674 20.1719 146.581 19.2344C145.487 18.2969 143.924 17.8281 141.893 17.8281H118.784V28.6562ZM118.784 34.5156V52H112.502V11.9688H141.612C145.737 11.9688 148.94 12.9531 151.221 14.9219C153.534 16.8594 154.69 19.5938 154.69 23.125C154.69 26.4688 153.549 29.2031 151.268 31.3281C148.987 33.4531 145.987 34.5156 142.268 34.5156H118.784Z" fill="#00236D"/>
<path d="M68.65 28.6562H91.4781C93.6031 28.6562 95.2281 28.1875 96.3531 27.25C97.5094 26.3125 98.0875 24.9688 98.0875 23.2188C98.0875 21.5 97.5406 20.1719 96.4469 19.2344C95.3531 18.2969 93.7906 17.8281 91.7594 17.8281H68.65V28.6562ZM68.65 34.5156V52H62.3688V11.9688H91.4781C95.6031 11.9688 98.8063 12.9531 101.088 14.9219C103.4 16.8594 104.556 19.5938 104.556 23.125C104.556 26.4688 103.416 29.2031 101.134 31.3281C98.8531 33.4531 95.8531 34.5156 92.1344 34.5156H68.65Z" fill="#00236D"/>
<path d="M16.6881 32.0312H39.4694L28.0319 9.10938L16.6881 32.0312ZM0.000610352 52L25.36 0.25H30.7037L56.3444 52H49.36L42.3287 38.0781H13.735L6.89124 52H0.000610352Z" fill="#00236D"/>
</svg>
