<svg width="288" height="54" viewBox="0 0 288 54" fill="none" xmlns="http://www.w3.org/2000/svg">
<path d="M252.823 52V11.9688H256.104L281.557 40.0938V11.9688H287.698V52H284.417L259.011 23.9688V52H252.823Z" fill="#00236D"/>
<path d="M218.955 47.4062C224.299 47.4062 228.658 45.9688 232.033 43.0938C235.408 40.1875 237.096 36.5 237.096 32.0312C237.096 27.5938 235.393 23.9219 231.986 21.0156C228.611 18.1094 224.268 16.6562 218.955 16.6562C213.643 16.6562 209.299 18.1094 205.924 21.0156C202.58 23.8906 200.908 27.5625 200.908 32.0312C200.908 36.5 202.58 40.1875 205.924 43.0938C209.299 45.9688 213.643 47.4062 218.955 47.4062ZM218.955 53.2656C211.83 53.2656 205.971 51.25 201.377 47.2188C196.783 43.1875 194.486 38.125 194.486 32.0312C194.486 25.9062 196.768 20.8594 201.33 16.8906C205.924 12.8906 211.799 10.8906 218.955 10.8906C226.174 10.8906 232.064 12.875 236.627 16.8438C241.221 20.8125 243.518 25.875 243.518 32.0312C243.518 38.1562 241.221 43.2344 236.627 47.2656C232.033 51.2656 226.143 53.2656 218.955 53.2656Z" fill="#00236D"/>
<path d="M178.712 52V11.875H185.087V52H178.712Z" fill="#00236D"/>
<path d="M128.625 46.8906L131.672 41.6406C134.422 43.4844 137.422 44.9219 140.672 45.9531C143.922 46.9844 147.031 47.5 150 47.5C153.562 47.5 156.438 46.7812 158.625 45.3438C160.812 43.875 161.906 42 161.906 39.7188C161.906 37.4375 160.906 35.75 158.906 34.6562C156.906 33.5312 153.75 32.9062 149.438 32.7812C142.156 32.6875 137.156 31.8438 134.438 30.25C131.719 28.6562 130.359 26.0156 130.359 22.3281C130.359 18.8906 131.844 16.125 134.812 14.0312C137.812 11.9375 141.828 10.8906 146.859 10.8906C150.297 10.8906 153.625 11.375 156.844 12.3438C160.094 13.3125 163.219 14.75 166.219 16.6562L163.078 21.8594C160.578 20.1719 157.891 18.875 155.016 17.9688C152.141 17.0312 149.391 16.5625 146.766 16.5625C143.734 16.5625 141.297 17.0938 139.453 18.1562C137.609 19.2188 136.688 20.6094 136.688 22.3281C136.688 24.1094 137.609 25.375 139.453 26.125C141.328 26.875 144.562 27.25 149.156 27.25C155.531 27.25 160.344 28.3281 163.594 30.4844C166.844 32.6406 168.469 35.8438 168.469 40.0938C168.469 43.875 166.812 47.0156 163.5 49.5156C160.219 52.0156 155.953 53.2656 150.703 53.2656C146.828 53.2656 142.969 52.7188 139.125 51.625C135.312 50.5 131.812 48.9219 128.625 46.8906Z" fill="#00236D"/>
<path d="M83.7412 46.8906L86.7881 41.6406C89.5381 43.4844 92.5381 44.9219 95.7881 45.9531C99.0381 46.9844 102.147 47.5 105.116 47.5C108.679 47.5 111.554 46.7812 113.741 45.3438C115.929 43.875 117.022 42 117.022 39.7188C117.022 37.4375 116.022 35.75 114.022 34.6562C112.022 33.5312 108.866 32.9062 104.554 32.7812C97.2725 32.6875 92.2725 31.8438 89.5537 30.25C86.835 28.6562 85.4756 26.0156 85.4756 22.3281C85.4756 18.8906 86.96 16.125 89.9287 14.0312C92.9287 11.9375 96.9443 10.8906 101.976 10.8906C105.413 10.8906 108.741 11.375 111.96 12.3438C115.21 13.3125 118.335 14.75 121.335 16.6562L118.194 21.8594C115.694 20.1719 113.007 18.875 110.132 17.9688C107.257 17.0312 104.507 16.5625 101.882 16.5625C98.8506 16.5625 96.4131 17.0938 94.5693 18.1562C92.7256 19.2188 91.8037 20.6094 91.8037 22.3281C91.8037 24.1094 92.7256 25.375 94.5693 26.125C96.4443 26.875 99.6787 27.25 104.272 27.25C110.647 27.25 115.46 28.3281 118.71 30.4844C121.96 32.6406 123.585 35.8438 123.585 40.0938C123.585 43.875 121.929 47.0156 118.616 49.5156C115.335 52.0156 111.069 53.2656 105.819 53.2656C101.944 53.2656 98.085 52.7188 94.2412 51.625C90.4287 50.5 86.9287 48.9219 83.7412 46.8906Z" fill="#00236D"/>
<path d="M67.9668 52V11.875H74.3418V52H67.9668Z" fill="#00236D"/>
<path d="M0.911255 52V0.25H6.86438L27.7706 31.9375L48.8175 0.25H54.6769V52H48.3019V11.5938L27.7706 42.2031L7.23938 11.5938V52H0.911255Z" fill="#00236D"/>
</svg>
