<svg width="349" height="59" viewBox="0 0 349 59" fill="none" xmlns="http://www.w3.org/2000/svg">
<path d="M308.676 47.8906L311.723 42.6406C314.473 44.4844 317.473 45.9219 320.723 46.9531C323.973 47.9844 327.082 48.5 330.051 48.5C333.613 48.5 336.488 47.7812 338.676 46.3438C340.863 44.875 341.957 43 341.957 40.7188C341.957 38.4375 340.957 36.75 338.957 35.6562C336.957 34.5312 333.801 33.9062 329.488 33.7812C322.207 33.6875 317.207 32.8438 314.488 31.25C311.769 29.6562 310.41 27.0156 310.41 23.3281C310.41 19.8906 311.894 17.125 314.863 15.0312C317.863 12.9375 321.879 11.8906 326.91 11.8906C330.348 11.8906 333.676 12.375 336.894 13.3438C340.144 14.3125 343.269 15.75 346.269 17.6562L343.129 22.8594C340.629 21.1719 337.941 19.875 335.066 18.9688C332.191 18.0312 329.441 17.5625 326.816 17.5625C323.785 17.5625 321.348 18.0938 319.504 19.1562C317.66 20.2188 316.738 21.6094 316.738 23.3281C316.738 25.1094 317.66 26.375 319.504 27.125C321.379 27.875 324.613 28.25 329.207 28.25C335.582 28.25 340.394 29.3281 343.644 31.4844C346.894 33.6406 348.519 36.8438 348.519 41.0938C348.519 44.875 346.863 48.0156 343.551 50.5156C340.269 53.0156 336.004 54.2656 330.754 54.2656C326.879 54.2656 323.019 53.7188 319.176 52.625C315.363 51.5 311.863 49.9219 308.676 47.8906Z" fill="#00236D"/>
<path d="M264.87 53V12.9688H302.417V18.8281H271.151V28.8125H291.682V34.5781H271.151V47.2344H304.151V53H264.87Z" fill="#00236D"/>
<path d="M245.674 53V12.875H252.049V53H245.674Z" fill="#00236D"/>
<path d="M200.884 29.6562H222.165C224.321 29.6562 225.962 29.1875 227.087 28.25C228.243 27.3125 228.821 25.9688 228.821 24.2188C228.821 22.4688 228.243 21.1406 227.087 20.2344C225.962 19.2969 224.321 18.8281 222.165 18.8281H200.884V29.6562ZM200.884 35.5156V53H194.603V13.0625H222.165C226.259 13.0625 229.462 14.0469 231.774 16.0156C234.087 17.9844 235.243 20.7188 235.243 24.2188C235.243 27.0625 234.321 29.5312 232.478 31.625C230.665 33.6875 228.29 34.9531 225.353 35.4219L236.462 53H229.665L218.321 35.5156H200.884Z" fill="#00236D"/>
<path d="M175.312 53V12.875H181.688V53H175.312Z" fill="#00236D"/>
<path d="M122.835 13.0625H129.116V38.7031C129.116 42.5469 130.022 45.1406 131.835 46.4844C133.647 47.8281 137.241 48.5 142.616 48.5C148.022 48.5 151.632 47.8281 153.444 46.4844C155.257 45.1406 156.163 42.5469 156.163 38.7031V13.0625H162.397V40.3438C162.397 45.25 160.835 48.7969 157.71 50.9844C154.616 53.1719 149.554 54.2656 142.522 54.2656C135.522 54.2656 130.491 53.1875 127.429 51.0312C124.366 48.875 122.835 45.3125 122.835 40.3438V13.0625Z" fill="#00236D"/>
<path d="M96.9355 47.2344C100.154 45.8906 102.654 43.9688 104.436 41.4688C106.217 38.9688 107.107 36.1562 107.107 33.0312C107.107 28.5938 105.404 24.9219 101.998 22.0156C98.623 19.1094 94.2793 17.6562 88.9668 17.6562C83.6543 17.6562 79.3105 19.1094 75.9355 22.0156C72.5918 24.8906 70.9199 28.5625 70.9199 33.0312C70.9199 37.4375 72.5762 41.1094 75.8887 44.0469C79.2012 46.9531 83.4043 48.4062 88.498 48.4062C88.6855 48.4062 88.9668 48.3906 89.3418 48.3594C89.7168 48.3281 90.0137 48.3125 90.2324 48.3125L86.2012 43.3906H93.748L96.9355 47.2344ZM100.873 51.8281L106.357 58.4844H98.6699L94.7324 53.7969C92.6387 53.9844 91.2324 54.1094 90.5137 54.1719C89.8262 54.2344 89.3105 54.2656 88.9668 54.2656C81.8418 54.2656 75.9824 52.25 71.3887 48.2188C66.7949 44.1875 64.498 39.125 64.498 33.0312C64.498 26.9062 66.7793 21.8594 71.3418 17.8906C75.9355 13.8906 81.8105 11.8906 88.9668 11.8906C96.1855 11.8906 102.076 13.875 106.639 17.8438C111.232 21.8125 113.529 26.875 113.529 33.0312C113.529 37.1562 112.42 40.8594 110.201 44.1406C107.982 47.3906 104.873 49.9531 100.873 51.8281Z" fill="#00236D"/>
<path d="M20.3175 53V12.9688H23.5988L49.0519 41.0938V12.9688H55.1925V53H51.9113L26.505 24.9688V53H20.3175Z" fill="#00236D"/>
<path d="M0.0430908 53V0.96875H6.55872V53H0.0430908Z" fill="#00236D"/>
</svg>
