<svg width="196" height="55" viewBox="0 0 196 55" fill="none" xmlns="http://www.w3.org/2000/svg">
<path d="M159.419 53V12.9688H165.701V47.2344H195.419V53H159.419Z" fill="#00236D"/>
<path d="M124.098 37.5312H139.754L131.973 22.2031L124.098 37.5312ZM109.614 53L129.958 12.9688H133.895L154.426 53H147.723L142.52 42.8281H121.379L116.223 53H109.614Z" fill="#00236D"/>
<path d="M83.48 48.4062C88.8237 48.4062 93.1831 46.9688 96.5581 44.0938C99.9331 41.1875 101.621 37.5 101.621 33.0312C101.621 28.5938 99.9175 24.9219 96.5112 22.0156C93.1362 19.1094 88.7925 17.6562 83.48 17.6562C78.1675 17.6562 73.8237 19.1094 70.4487 22.0156C67.105 24.8906 65.4331 28.5625 65.4331 33.0312C65.4331 37.5 67.105 41.1875 70.4487 44.0938C73.8237 46.9688 78.1675 48.4062 83.48 48.4062ZM83.48 54.2656C76.355 54.2656 70.4956 52.25 65.9019 48.2188C61.3081 44.1875 59.0112 39.125 59.0112 33.0312C59.0112 26.9062 61.2925 21.8594 65.855 17.8906C70.4487 13.8906 76.3237 11.8906 83.48 11.8906C90.6987 11.8906 96.5894 13.875 101.152 17.8438C105.746 21.8125 108.042 26.875 108.042 33.0312C108.042 39.1562 105.746 44.2344 101.152 48.2656C96.5581 52.2656 90.6675 54.2656 83.48 54.2656Z" fill="#00236D"/>
<path d="M44.6899 38.9844V31.3906H30.5806V25.4375H51.1118V41C48.6118 45.3125 45.3462 48.625 41.3149 50.9375C37.3149 53.2188 32.7681 54.3594 27.6743 54.3594C19.9243 54.3594 13.5181 51.8125 8.45557 46.7188C3.42432 41.5938 0.908691 35.1094 0.908691 27.2656C0.908691 19.3906 3.43994 12.9062 8.50244 7.8125C13.5649 2.6875 19.9556 0.125 27.6743 0.125C32.4556 0.125 36.8149 1.17188 40.7524 3.26562C44.6899 5.35938 47.8931 8.34375 50.3618 12.2188L44.9712 16.0625C43.3462 12.9688 41.0024 10.5469 37.9399 8.79688C34.8774 7.04688 31.4556 6.17188 27.6743 6.17188C21.8618 6.17188 17.0493 8.17188 13.2368 12.1719C9.42432 16.1406 7.51807 21.1719 7.51807 27.2656C7.51807 33.3594 9.42432 38.3906 13.2368 42.3594C17.0493 46.3281 21.8618 48.3125 27.6743 48.3125C31.2993 48.3125 34.5181 47.5312 37.3306 45.9688C40.1743 44.4062 42.6274 42.0781 44.6899 38.9844Z" fill="#00236D"/>
</svg>
