<svg width="66" height="19" viewBox="0 0 66 19" fill="none" xmlns="http://www.w3.org/2000/svg">
<path d="M15.23 13.3281V10.7969H10.5269V8.8125H17.3706V14C16.5373 15.4375 15.4487 16.5417 14.105 17.3125C12.7717 18.0729 11.256 18.4531 9.55812 18.4531C6.97479 18.4531 4.83937 17.6042 3.15187 15.9062C1.47479 14.1979 0.63625 12.0365 0.63625 9.42188C0.63625 6.79688 1.48 4.63542 3.1675 2.9375C4.855 1.22917 6.98521 0.375 9.55812 0.375C11.1519 0.375 12.605 0.723958 13.9175 1.42188C15.23 2.11979 16.2977 3.11458 17.1206 4.40625L15.3237 5.6875C14.7821 4.65625 14.0008 3.84896 12.98 3.26562C11.9592 2.68229 10.8185 2.39062 9.55812 2.39062C7.62062 2.39062 6.01646 3.05729 4.74562 4.39062C3.47479 5.71354 2.83937 7.39062 2.83937 9.42188C2.83937 11.4531 3.47479 13.1302 4.74562 14.4531C6.01646 15.776 7.62062 16.4375 9.55812 16.4375C10.7665 16.4375 11.8394 16.1771 12.7769 15.6562C13.7248 15.1354 14.5425 14.3594 15.23 13.3281ZM28.16 16.4688C29.9412 16.4688 31.3944 15.9896 32.5194 15.0312C33.6444 14.0625 34.2069 12.8333 34.2069 11.3438C34.2069 9.86458 33.6392 8.64062 32.5037 7.67188C31.3787 6.70312 29.9308 6.21875 28.16 6.21875C26.3892 6.21875 24.9412 6.70312 23.8162 7.67188C22.7017 8.63021 22.1444 9.85417 22.1444 11.3438C22.1444 12.8333 22.7017 14.0625 23.8162 15.0312C24.9412 15.9896 26.3892 16.4688 28.16 16.4688ZM28.16 18.4219C25.785 18.4219 23.8319 17.75 22.3006 16.4062C20.7694 15.0625 20.0037 13.375 20.0037 11.3438C20.0037 9.30208 20.7642 7.61979 22.285 6.29688C23.8162 4.96354 25.7746 4.29688 28.16 4.29688C30.5662 4.29688 32.5298 4.95833 34.0506 6.28125C35.5819 7.60417 36.3475 9.29167 36.3475 11.3438C36.3475 13.3854 35.5819 15.0781 34.0506 16.4219C32.5194 17.7552 30.5558 18.4219 28.16 18.4219ZM41.6994 12.8438H46.9181L44.3244 7.73438L41.6994 12.8438ZM36.8713 18L43.6525 4.65625H44.965L51.8088 18H49.5744L47.84 14.6094H40.7931L39.0744 18H36.8713ZM53.4731 18V4.65625H55.5669V16.0781H65.4731V18H53.4731Z" fill="white"/>
</svg>
