<svg width="200" height="52" viewBox="0 0 200 52" fill="none" xmlns="http://www.w3.org/2000/svg">
<path d="M79.3484 26.6945L58.6303 8.67188H57.2896V31.6832H59.8364V13.6606L80.615 31.6832H81.9154V8.67188H79.3484V26.6945Z" fill="#00236D"/>
<path d="M196.845 13.8794V26.9435L183.046 13.8794H181.739V31.6832H184.198V18.6643L197.984 31.6832H199.284V13.8794H196.845Z" fill="#00236D"/>
<path d="M132.474 13.8794L127.354 26.9134L122.119 13.8794H120.05L114.822 26.9134L109.715 13.8794H86.5308V31.6832H104.096V29.1171H89.0237V23.4945H99.1435V20.9284H89.0237V16.4907H108.226L113.872 31.6832H115.617L121.095 17.9926L126.552 31.6832H128.337L133.997 16.3624H145.673V31.6832H148.146V16.3624H156.096V13.8794H132.474Z" fill="#00236D"/>
<path d="M169.726 12.936C166.964 12.1813 164.033 12.302 161.897 13.5398C159.761 14.7775 158.4 16.7247 157.827 19.3737C157.255 22.0077 157.666 24.4379 159.06 26.6567C160.455 28.8832 163.002 30.4982 165.751 31.2454C168.52 32.0001 171.464 31.8794 173.614 30.6266C175.763 29.3737 177.124 27.4266 177.697 24.7775C178.276 22.1209 177.865 19.6907 176.47 17.4945C175.076 15.2983 172.509 13.6907 169.719 12.936M175.217 24.1058C174.799 26.0379 173.802 27.4492 172.232 28.3473C170.663 29.2454 168.365 29.2756 166.303 28.7171C164.255 28.1586 162.241 26.9511 161.21 25.3511C160.179 23.7511 159.882 21.985 160.3 20.053C160.718 18.1209 161.708 16.7096 163.278 15.8115C164.848 14.9133 167.132 14.8756 169.18 15.4341C171.228 15.9926 173.25 17.2077 174.287 18.8152C175.325 20.4303 175.635 22.1888 175.217 24.1058Z" fill="#00236D"/>
<path d="M58.4417 41.4341H57.2896V51.7511H58.4417V41.4341Z" fill="#00236D"/>
<path d="M60.5571 51.7436V43.8115H61.1366L65.6373 49.3813V43.8115H66.7287V51.7436H66.1426L61.6486 46.1889V51.7436H60.5571Z" fill="#00236D"/>
<path d="M71.7014 51.7436H71.1287L67.5713 43.8115H68.7436L71.4117 49.7436L74.0326 43.8115H75.2521L71.7014 51.7436Z" fill="#00236D"/>
<path d="M76.0669 51.7436V43.8115H82.7101V44.9738H77.1786V46.9511H80.8101V48.0908H77.1786V50.604H83.0201V51.7436H76.0669Z" fill="#00236D"/>
<path d="M83.6468 50.7319L84.1858 49.6904C84.6709 50.0527 85.2032 50.3395 85.7758 50.5432C86.3485 50.747 86.901 50.8527 87.4266 50.8527C88.0599 50.8527 88.5652 50.7093 88.9492 50.4225C89.34 50.1357 89.5287 49.7659 89.5287 49.313C89.5287 48.8602 89.3535 48.5281 88.9964 48.3017C88.6461 48.0829 88.0868 47.9621 87.3188 47.9319C86.0319 47.9168 85.1425 47.7432 84.6642 47.4262C84.1858 47.1093 83.9432 46.5885 83.9432 45.8564C83.9432 45.1772 84.206 44.6263 84.7383 44.2112C85.2638 43.7961 85.978 43.5923 86.8673 43.5923C87.4737 43.5923 88.0666 43.6904 88.6393 43.8791C89.212 44.0753 89.7645 44.3546 90.2968 44.7319L89.7443 45.7659C89.2996 45.4338 88.828 45.1696 88.3159 44.9885C87.8039 44.8074 87.3188 44.7168 86.8539 44.7168C86.3149 44.7168 85.8837 44.8225 85.5602 45.0338C85.2368 45.2451 85.0684 45.5168 85.0684 45.864C85.0684 46.2112 85.2301 46.4678 85.5602 46.6187C85.8904 46.7696 86.4631 46.8451 87.2716 46.8451C88.3968 46.8451 89.2524 47.0564 89.8251 47.4866C90.3978 47.9168 90.6875 48.5508 90.6875 49.3885C90.6875 50.1357 90.3978 50.7621 89.8117 51.2527C89.2255 51.7508 88.4709 51.9998 87.5411 51.9998C86.8539 51.9998 86.1734 51.8866 85.4929 51.6678C84.8124 51.4489 84.1925 51.1395 83.6333 50.7319" fill="#00236D"/>
<path d="M94.0092 51.7436V44.9134H91.0244V43.8115H98.1056V44.9134H95.1141V51.7436H94.0092Z" fill="#00236D"/>
<path d="M98.9346 51.7436V43.8115H99.8509L102.755 48.453L105.659 43.8115H106.582V51.7436H105.477V46.0379L102.755 50.453L100.046 46.0379V51.7436H98.9346Z" fill="#00236D"/>
<path d="M108.05 51.7436V43.8115H114.694V44.9738H109.162V46.9511H112.794V48.0908H109.162V50.604H114.997V51.7436H108.05Z" fill="#00236D"/>
<path d="M116.25 51.7436V43.8115H116.836L121.337 49.3813V43.8115H122.422V51.7436H121.842L117.348 46.1889V51.7436H116.25Z" fill="#00236D"/>
<path d="M126.188 51.7436V44.9134H123.203V43.8115H130.291V44.9134H127.293V51.7436H126.188Z" fill="#00236D"/>
<path d="M135.749 51.7434V41.4868H140.997C141.887 41.4868 142.587 41.7359 143.099 42.234C143.611 42.7321 143.867 43.4038 143.867 44.2717C143.867 45.1396 143.618 45.8868 143.126 46.4378C142.628 46.9887 141.974 47.2679 141.145 47.2679H136.881V51.7585H135.742L135.749 51.7434ZM136.887 46.0529H140.93C141.503 46.0529 141.941 45.9095 142.237 45.6227C142.533 45.3359 142.682 44.9208 142.682 44.3698C142.682 43.8189 142.533 43.4113 142.237 43.1095C141.941 42.8076 141.523 42.6566 140.991 42.6566H136.894V46.0453L136.887 46.0529Z" fill="#00236D"/>
<path d="M142.52 51.7436L146.118 43.8115H146.812L150.443 51.7436H149.257L148.334 49.7285H144.595L143.686 51.7436H142.513H142.52ZM145.08 48.6794H147.849L146.475 45.6379L145.08 48.6794Z" fill="#00236D"/>
<path d="M152.566 48.2795V51.7436H151.454V43.8267H156.332C157.06 43.8267 157.625 44.0229 158.03 44.4078C158.441 44.8002 158.643 45.3436 158.643 46.0304C158.643 46.5965 158.481 47.0795 158.158 47.4946C157.834 47.9097 157.41 48.1587 156.891 48.2493L158.858 51.7361H157.652L155.645 48.2719H152.559L152.566 48.2795ZM152.566 47.1172H156.332C156.716 47.1172 157.006 47.0267 157.208 46.838C157.41 46.6493 157.511 46.3852 157.511 46.038C157.511 45.6908 157.41 45.4267 157.208 45.2455C157.006 45.0644 156.716 44.9738 156.332 44.9738H152.566V47.1172Z" fill="#00236D"/>
<path d="M162.349 51.7436V44.9134H159.364V43.8115H166.445V44.9134H163.453V51.7436H162.349Z" fill="#00236D"/>
<path d="M167.563 51.7436V43.8115H168.143L172.65 49.3813V43.8115H173.735V51.7436H173.156L168.662 46.1889V51.7436H167.563Z" fill="#00236D"/>
<path d="M175.419 51.7436V43.8115H182.063V44.9738H176.531V46.9511H180.163V48.0908H176.531V50.604H182.366V51.7436H175.419Z" fill="#00236D"/>
<path d="M184.818 48.2795V51.7436H183.707V43.8267H188.585C189.312 43.8267 189.878 44.0229 190.283 44.4078C190.694 44.8002 190.896 45.3436 190.896 46.0304C190.896 46.5965 190.734 47.0795 190.411 47.4946C190.087 47.9097 189.663 48.1587 189.144 48.2493L191.111 51.7361H189.912L187.904 48.2719H184.818V48.2795ZM184.818 47.1172H188.585C188.969 47.1172 189.259 47.0267 189.461 46.838C189.663 46.6493 189.764 46.3852 189.764 46.038C189.764 45.6908 189.663 45.4267 189.461 45.2455C189.259 45.0644 188.969 44.9738 188.585 44.9738H184.818V47.1172Z" fill="#00236D"/>
<path d="M192.23 50.7319L192.769 49.6904C193.254 50.0527 193.786 50.3395 194.359 50.5432C194.931 50.747 195.484 50.8527 196.009 50.8527C196.643 50.8527 197.148 50.7093 197.539 50.4225C197.923 50.1357 198.118 49.7659 198.118 49.313C198.118 48.8602 197.943 48.5281 197.586 48.3017C197.229 48.0829 196.676 47.9621 195.908 47.9319C194.622 47.9168 193.739 47.7432 193.254 47.4262C192.775 47.1093 192.533 46.5885 192.533 45.8564C192.533 45.1772 192.796 44.6263 193.321 44.2112C193.847 43.7961 194.561 43.5923 195.45 43.5923C196.057 43.5923 196.65 43.6904 197.222 43.8791C197.795 44.0753 198.347 44.3546 198.88 44.7319L198.32 45.7659C197.876 45.4338 197.404 45.1696 196.892 44.9885C196.38 44.8074 195.895 44.7168 195.43 44.7168C194.891 44.7168 194.46 44.8225 194.136 45.0338C193.813 45.2451 193.645 45.5168 193.645 45.864C193.645 46.2112 193.806 46.4678 194.136 46.6187C194.467 46.7696 195.039 46.8451 195.848 46.8451C196.973 46.8451 197.829 47.0564 198.401 47.4866C198.974 47.9168 199.264 48.5508 199.264 49.3885C199.264 50.1357 198.974 50.7621 198.388 51.2527C197.802 51.7508 197.047 51.9998 196.117 51.9998C195.43 51.9998 194.75 51.8866 194.069 51.6678C193.389 51.4489 192.769 51.1395 192.209 50.7319" fill="#00236D"/>
<mask id="mask0_165_307" style="mask-type:luminance" maskUnits="userSpaceOnUse" x="0" y="0" width="47" height="52">
<path d="M46.4623 0H0V51.7434H46.4623V0Z" fill="white"/>
</mask>
<g mask="url(#mask0_165_307)">
<path d="M45.6605 9.40377L38.4715 47.2981V8.6566H13.9805L8.96097 0L7.317 8.6566H0V51.7434H38.4648L46.4623 9.6L45.6538 9.41132L45.6605 9.40377ZM37.6428 9.57736V49.4717L14.5127 9.57736H37.6428ZM9.35175 2.36981L12.9968 8.64906H8.1592L9.35175 2.36981ZM0.821984 9.57736H7.14183L0.842196 42.7849L0.828721 42.8679V9.57736H0.821984ZM0.821984 47.3132L1.64397 42.9811L7.98402 9.57736H13.529L37.4407 50.8151H0.821984V47.3057V47.3132Z" fill="#00236D"/>
</g>
</svg>
